# 3ds Max Wavefront OBJ Exporter v0.97b - (c)2007 guruware
# File Created: 27.04.2015 11:54:09

mtllib sjogras.mtl

#
# object Plane001
#

v  -0.5906 0.9843 0.7874
v  -0.5906 0.0000 0.6819
v  -0.2953 0.9843 0.7874
v  -0.2953 0.0000 0.6819
v  0.0000 0.9843 0.7874
v  0.0000 0.0000 0.6819
v  0.2953 0.9843 0.7874
v  0.2953 0.0000 0.6819
v  0.5906 0.9843 0.7874
v  0.5906 0.0000 0.6819
v  -0.5906 1.9685 0.6819
v  -0.2953 1.9685 0.6819
v  0.0000 1.9685 0.6819
v  0.2953 1.9685 0.6819
v  0.5906 1.9685 0.6819
v  -0.5906 2.9528 0.3937
v  -0.2953 2.9528 0.3937
v  0.0000 2.9528 0.3937
v  0.2953 2.9528 0.3937
v  0.5906 2.9528 0.3937
v  -0.5906 3.9370 0.0000
v  -0.2953 3.9370 0.0000
v  0.0000 3.9370 0.0000
v  0.2953 3.9370 0.0000
v  0.5906 3.9370 0.0000
v  -0.5906 4.9213 -0.3937
v  -0.2953 4.9213 -0.3937
v  0.0000 4.9213 -0.3937
v  0.2953 4.9213 -0.3937
v  0.5906 4.9213 -0.3937
v  -0.5906 5.9055 -0.6819
v  -0.2953 5.9055 -0.6819
v  0.0000 5.9055 -0.6819
v  0.2953 5.9055 -0.6819
v  0.5906 5.9055 -0.6819
v  -0.5906 6.8898 -0.7874
v  -0.2953 6.8898 -0.7874
v  0.0000 6.8898 -0.7874
v  0.2953 6.8898 -0.7874
v  0.5906 6.8898 -0.7874
v  -0.5906 7.8740 -0.6819
v  -0.2953 7.8740 -0.6819
v  0.0000 7.8740 -0.6819
v  0.2953 7.8740 -0.6819
v  0.5906 7.8740 -0.6819
v  -0.5906 8.8583 -0.3937
v  -0.2953 8.8583 -0.3937
v  0.0000 8.8583 -0.3937
v  0.2953 8.8583 -0.3937
v  0.5906 8.8583 -0.3937
v  -0.5906 9.8425 0.0000
v  -0.2953 9.8425 0.0000
v  0.0000 9.8425 0.0000
v  0.2953 9.8425 0.0000
v  0.5906 9.8425 0.0000
v  -0.5906 10.8268 0.3937
v  -0.2953 10.8268 0.3937
v  0.0000 10.8268 0.3937
v  0.2953 10.8268 0.3937
v  0.5906 10.8268 0.3937
v  -0.5906 11.8110 0.6819
v  -0.2953 11.8110 0.6819
v  0.0000 11.8110 0.6819
v  0.2953 11.8110 0.6819
v  0.5906 11.8110 0.6819
v  -0.5906 12.7953 0.7874
v  -0.2953 12.7953 0.7874
v  0.0000 12.7953 0.7874
v  0.2953 12.7953 0.7874
v  0.5906 12.7953 0.7874
v  -0.5906 13.7795 0.6819
v  -0.2953 13.7795 0.6819
v  0.0000 13.7795 0.6819
v  0.2953 13.7795 0.6819
v  0.5906 13.7795 0.6819
v  -0.5906 14.7638 0.3937
v  -0.2953 14.7638 0.3937
v  0.0000 14.7638 0.3937
v  0.2953 14.7638 0.3937
v  0.5906 14.7638 0.3937
v  -0.5906 15.7480 0.0000
v  -0.2953 15.7480 0.0000
v  0.0000 15.7480 0.0000
v  0.2953 15.7480 0.0000
v  0.5906 15.7480 0.0000
v  -0.5906 16.7323 -0.3937
v  -0.2953 16.7323 -0.3937
v  0.0000 16.7323 -0.3937
v  0.2953 16.7323 -0.3937
v  0.5906 16.7323 -0.3937
v  -0.5906 17.7165 -0.6819
v  -0.2953 17.7165 -0.6819
v  0.0000 17.7165 -0.6819
v  0.2953 17.7165 -0.6819
v  0.5906 17.7165 -0.6819
v  -0.5906 18.7008 -0.7874
v  -0.2953 18.7008 -0.7874
v  0.0000 18.7008 -0.7874
v  0.2953 18.7008 -0.7874
v  0.5906 18.7008 -0.7874
v  -0.5906 19.6850 -0.6819
v  -0.2953 19.6850 -0.6819
v  0.0000 19.6850 -0.6819
v  0.2953 19.6850 -0.6819
v  0.5906 19.6850 -0.6819
# 105 vertices

vn 0.0000 -0.0000 1.0000
vn 0.0000 -0.1066 0.9943
vn 0.0000 0.1946 0.9809
vn 0.0000 0.3266 0.9452
vn 0.0000 0.3714 0.9285
vn 0.0000 -0.1946 0.9809
vn 0.0000 -0.3266 0.9452
vn 0.0000 -0.3714 0.9285
# 8 vertex normals

vt 0.0000 0.0500 0.0000
vt 0.0000 0.0000 0.0000
vt 0.2500 0.0500 0.0000
vt 0.2500 0.0000 0.0000
vt 0.5000 0.0500 0.0000
vt 0.5000 0.0000 0.0000
vt 0.7500 0.0500 0.0000
vt 0.7500 0.0000 0.0000
vt 1.0000 0.0500 0.0000
vt 1.0000 0.0000 0.0000
vt 0.0000 0.1000 0.0000
vt 0.2500 0.1000 0.0000
vt 0.5000 0.1000 0.0000
vt 0.7500 0.1000 0.0000
vt 1.0000 0.1000 0.0000
vt 0.0000 0.1500 0.0000
vt 0.2500 0.1500 0.0000
vt 0.5000 0.1500 0.0000
vt 0.7500 0.1500 0.0000
vt 1.0000 0.1500 0.0000
vt 0.0000 0.2000 0.0000
vt 0.2500 0.2000 0.0000
vt 0.5000 0.2000 0.0000
vt 0.7500 0.2000 0.0000
vt 1.0000 0.2000 0.0000
vt 0.0000 0.2500 0.0000
vt 0.2500 0.2500 0.0000
vt 0.5000 0.2500 0.0000
vt 0.7500 0.2500 0.0000
vt 1.0000 0.2500 0.0000
vt 0.0000 0.3000 0.0000
vt 0.2500 0.3000 0.0000
vt 0.5000 0.3000 0.0000
vt 0.7500 0.3000 0.0000
vt 1.0000 0.3000 0.0000
vt 0.0000 0.3500 0.0000
vt 0.2500 0.3500 0.0000
vt 0.5000 0.3500 0.0000
vt 0.7500 0.3500 0.0000
vt 1.0000 0.3500 0.0000
vt 0.0000 0.4000 0.0000
vt 0.2500 0.4000 0.0000
vt 0.5000 0.4000 0.0000
vt 0.7500 0.4000 0.0000
vt 1.0000 0.4000 0.0000
vt 0.0000 0.4500 0.0000
vt 0.2500 0.4500 0.0000
vt 0.5000 0.4500 0.0000
vt 0.7500 0.4500 0.0000
vt 1.0000 0.4500 0.0000
vt 0.0000 0.5000 0.0000
vt 0.2500 0.5000 0.0000
vt 0.5000 0.5000 0.0000
vt 0.7500 0.5000 0.0000
vt 1.0000 0.5000 0.0000
vt 0.0000 0.5500 0.0000
vt 0.2500 0.5500 0.0000
vt 0.5000 0.5500 0.0000
vt 0.7500 0.5500 0.0000
vt 1.0000 0.5500 0.0000
vt 0.0000 0.6000 0.0000
vt 0.2500 0.6000 0.0000
vt 0.5000 0.6000 0.0000
vt 0.7500 0.6000 0.0000
vt 1.0000 0.6000 0.0000
vt 0.0000 0.6500 0.0000
vt 0.2500 0.6500 0.0000
vt 0.5000 0.6500 0.0000
vt 0.7500 0.6500 0.0000
vt 1.0000 0.6500 0.0000
vt 0.0000 0.7000 0.0000
vt 0.2500 0.7000 0.0000
vt 0.5000 0.7000 0.0000
vt 0.7500 0.7000 0.0000
vt 1.0000 0.7000 0.0000
vt 0.0000 0.7500 0.0000
vt 0.2500 0.7500 0.0000
vt 0.5000 0.7500 0.0000
vt 0.7500 0.7500 0.0000
vt 1.0000 0.7500 0.0000
vt 0.0000 0.8000 0.0000
vt 0.2500 0.8000 0.0000
vt 0.5000 0.8000 0.0000
vt 0.7500 0.8000 0.0000
vt 1.0000 0.8000 0.0000
vt 0.0000 0.8500 0.0000
vt 0.2500 0.8500 0.0000
vt 0.5000 0.8500 0.0000
vt 0.7500 0.8500 0.0000
vt 1.0000 0.8500 0.0000
vt 0.0000 0.9000 0.0000
vt 0.2500 0.9000 0.0000
vt 0.5000 0.9000 0.0000
vt 0.7500 0.9000 0.0000
vt 1.0000 0.9000 0.0000
vt 0.0000 0.9500 0.0000
vt 0.2500 0.9500 0.0000
vt 0.5000 0.9500 0.0000
vt 0.7500 0.9500 0.0000
vt 1.0000 0.9500 0.0000
vt 0.0000 1.0000 0.0000
vt 0.2500 1.0000 0.0000
vt 0.5000 1.0000 0.0000
vt 0.7500 1.0000 0.0000
vt 1.0000 1.0000 0.0000
# 105 texture coords

g Plane001
usemtl wire_154154229
s 1
f 1/1/1 2/2/2 3/3/1 
f 4/4/2 3/3/1 2/2/2 
f 3/3/1 4/4/2 5/5/1 
f 6/6/2 5/5/1 4/4/2 
f 5/5/1 6/6/2 7/7/1 
f 8/8/2 7/7/1 6/6/2 
f 7/7/1 8/8/2 9/9/1 
f 10/10/2 9/9/1 8/8/2 
f 11/11/3 1/1/1 12/12/3 
f 3/3/1 12/12/3 1/1/1 
f 12/12/3 3/3/1 13/13/3 
f 5/5/1 13/13/3 3/3/1 
f 13/13/3 5/5/1 14/14/3 
f 7/7/1 14/14/3 5/5/1 
f 14/14/3 7/7/1 15/15/3 
f 9/9/1 15/15/3 7/7/1 
f 16/16/4 11/11/3 17/17/4 
f 12/12/3 17/17/4 11/11/3 
f 17/17/4 12/12/3 18/18/4 
f 13/13/3 18/18/4 12/12/3 
f 18/18/4 13/13/3 19/19/4 
f 14/14/3 19/19/4 13/13/3 
f 19/19/4 14/14/3 20/20/4 
f 15/15/3 20/20/4 14/14/3 
f 21/21/5 16/16/4 22/22/5 
f 17/17/4 22/22/5 16/16/4 
f 22/22/5 17/17/4 23/23/5 
f 18/18/4 23/23/5 17/17/4 
f 23/23/5 18/18/4 24/24/5 
f 19/19/4 24/24/5 18/18/4 
f 24/24/5 19/19/4 25/25/5 
f 20/20/4 25/25/5 19/19/4 
f 26/26/4 21/21/5 27/27/4 
f 22/22/5 27/27/4 21/21/5 
f 27/27/4 22/22/5 28/28/4 
f 23/23/5 28/28/4 22/22/5 
f 28/28/4 23/23/5 29/29/4 
f 24/24/5 29/29/4 23/23/5 
f 29/29/4 24/24/5 30/30/4 
f 25/25/5 30/30/4 24/24/5 
f 31/31/3 26/26/4 32/32/3 
f 27/27/4 32/32/3 26/26/4 
f 32/32/3 27/27/4 33/33/3 
f 28/28/4 33/33/3 27/27/4 
f 33/33/3 28/28/4 34/34/3 
f 29/29/4 34/34/3 28/28/4 
f 34/34/3 29/29/4 35/35/3 
f 30/30/4 35/35/3 29/29/4 
f 36/36/1 31/31/3 37/37/1 
f 32/32/3 37/37/1 31/31/3 
f 37/37/1 32/32/3 38/38/1 
f 33/33/3 38/38/1 32/32/3 
f 38/38/1 33/33/3 39/39/1 
f 34/34/3 39/39/1 33/33/3 
f 39/39/1 34/34/3 40/40/1 
f 35/35/3 40/40/1 34/34/3 
f 41/41/6 36/36/1 42/42/6 
f 37/37/1 42/42/6 36/36/1 
f 42/42/6 37/37/1 43/43/6 
f 38/38/1 43/43/6 37/37/1 
f 43/43/6 38/38/1 44/44/6 
f 39/39/1 44/44/6 38/38/1 
f 44/44/6 39/39/1 45/45/6 
f 40/40/1 45/45/6 39/39/1 
f 46/46/7 41/41/6 47/47/7 
f 42/42/6 47/47/7 41/41/6 
f 47/47/7 42/42/6 48/48/7 
f 43/43/6 48/48/7 42/42/6 
f 48/48/7 43/43/6 49/49/7 
f 44/44/6 49/49/7 43/43/6 
f 49/49/7 44/44/6 50/50/7 
f 45/45/6 50/50/7 44/44/6 
f 51/51/8 46/46/7 52/52/8 
f 47/47/7 52/52/8 46/46/7 
f 52/52/8 47/47/7 53/53/8 
f 48/48/7 53/53/8 47/47/7 
f 53/53/8 48/48/7 54/54/8 
f 49/49/7 54/54/8 48/48/7 
f 54/54/8 49/49/7 55/55/8 
f 50/50/7 55/55/8 49/49/7 
f 56/56/7 51/51/8 57/57/7 
f 52/52/8 57/57/7 51/51/8 
f 57/57/7 52/52/8 58/58/7 
f 53/53/8 58/58/7 52/52/8 
f 58/58/7 53/53/8 59/59/7 
f 54/54/8 59/59/7 53/53/8 
f 59/59/7 54/54/8 60/60/7 
f 55/55/8 60/60/7 54/54/8 
f 61/61/6 56/56/7 62/62/6 
f 57/57/7 62/62/6 56/56/7 
f 62/62/6 57/57/7 63/63/6 
f 58/58/7 63/63/6 57/57/7 
f 63/63/6 58/58/7 64/64/6 
f 59/59/7 64/64/6 58/58/7 
f 64/64/6 59/59/7 65/65/6 
f 60/60/7 65/65/6 59/59/7 
f 66/66/1 61/61/6 67/67/1 
f 62/62/6 67/67/1 61/61/6 
f 67/67/1 62/62/6 68/68/1 
f 63/63/6 68/68/1 62/62/6 
f 68/68/1 63/63/6 69/69/1 
f 64/64/6 69/69/1 63/63/6 
f 69/69/1 64/64/6 70/70/1 
f 65/65/6 70/70/1 64/64/6 
f 71/71/3 66/66/1 72/72/3 
f 67/67/1 72/72/3 66/66/1 
f 72/72/3 67/67/1 73/73/3 
f 68/68/1 73/73/3 67/67/1 
f 73/73/3 68/68/1 74/74/3 
f 69/69/1 74/74/3 68/68/1 
f 74/74/3 69/69/1 75/75/3 
f 70/70/1 75/75/3 69/69/1 
f 76/76/4 71/71/3 77/77/4 
f 72/72/3 77/77/4 71/71/3 
f 77/77/4 72/72/3 78/78/4 
f 73/73/3 78/78/4 72/72/3 
f 78/78/4 73/73/3 79/79/4 
f 74/74/3 79/79/4 73/73/3 
f 79/79/4 74/74/3 80/80/4 
f 75/75/3 80/80/4 74/74/3 
f 81/81/5 76/76/4 82/82/5 
f 77/77/4 82/82/5 76/76/4 
f 82/82/5 77/77/4 83/83/5 
f 78/78/4 83/83/5 77/77/4 
f 83/83/5 78/78/4 84/84/5 
f 79/79/4 84/84/5 78/78/4 
f 84/84/5 79/79/4 85/85/5 
f 80/80/4 85/85/5 79/79/4 
f 86/86/4 81/81/5 87/87/4 
f 82/82/5 87/87/4 81/81/5 
f 87/87/4 82/82/5 88/88/4 
f 83/83/5 88/88/4 82/82/5 
f 88/88/4 83/83/5 89/89/4 
f 84/84/5 89/89/4 83/83/5 
f 89/89/4 84/84/5 90/90/4 
f 85/85/5 90/90/4 84/84/5 
f 91/91/3 86/86/4 92/92/3 
f 87/87/4 92/92/3 86/86/4 
f 92/92/3 87/87/4 93/93/3 
f 88/88/4 93/93/3 87/87/4 
f 93/93/3 88/88/4 94/94/3 
f 89/89/4 94/94/3 88/88/4 
f 94/94/3 89/89/4 95/95/3 
f 90/90/4 95/95/3 89/89/4 
f 96/96/1 91/91/3 97/97/1 
f 92/92/3 97/97/1 91/91/3 
f 97/97/1 92/92/3 98/98/1 
f 93/93/3 98/98/1 92/92/3 
f 98/98/1 93/93/3 99/99/1 
f 94/94/3 99/99/1 93/93/3 
f 99/99/1 94/94/3 100/100/1 
f 95/95/3 100/100/1 94/94/3 
f 101/101/2 96/96/1 102/102/2 
f 97/97/1 102/102/2 96/96/1 
f 102/102/2 97/97/1 103/103/2 
f 98/98/1 103/103/2 97/97/1 
f 103/103/2 98/98/1 104/104/2 
f 99/99/1 104/104/2 98/98/1 
f 104/104/2 99/99/1 105/105/2 
f 100/100/1 105/105/2 99/99/1 
# 160 faces

